# xmcd
#
# Track frame offsets: 
#        150
#        21002
#        40425
#        59990
#        80485
#        101472
#        124947
#        149280
#        171662
#        197060
#        214807
#
# Disc length: 3108 seconds
#
# Revision: 0
# Processed by: cddbd v1.5.2PL0 Copyright (c) Steve Scherf et al.
# Submitted via: ExactAudioCopy v0.95b4
#
DISCID=aa0c220b
DTITLE=PATTI AUSTIN - Jukebox Dream
DYEAR=1996
DGENRE=R&B
TTITLE0=Maybe
TTITLE1=Got To Give It Up
TTITLE2=Don't Go Away
TTITLE3=Why You Wanna Be Like That
TTITLE4=I Musta Been Dreamin'
TTITLE5=I'll Never Get Over You
TTITLE6=I Offer You Love
TTITLE7=If We're Not In Love
TTITLE8=I Will Be There
TTITLE9=Doe-Si-Doe-In
TTITLE10=Kiss
EXTD=
EXTT0=
EXTT1=
EXTT2=
EXTT3=
EXTT4=
EXTT5=
EXTT6=
EXTT7=
EXTT8=
EXTT9=
EXTT10=
PLAYORDER=
